<svg width="52" height="52" viewBox="0 0 52 52" fill="none" xmlns="http://www.w3.org/2000/svg">
<circle cx="26" cy="26" r="26" fill="#C2C2C2" fill-opacity="0.3"/>
<path fill-rule="evenodd" clip-rule="evenodd" d="M29.1512 14.3333C33.1085 14.3333 35.3788 16.2922 35.3788 19.7047V36.6633C35.3788 37.375 35.0125 38.0155 34.3965 38.3737C33.7828 38.733 33.0432 38.74 32.4225 38.39L25.4692 34.4618L18.4517 38.3982C18.1483 38.5685 17.8158 38.6548 17.4822 38.6548C17.138 38.6548 16.7938 38.5627 16.4812 38.3783C15.8663 38.0202 15.5 37.3797 15.5 36.6692V19.4912C15.5 16.2128 17.7715 14.3333 21.7323 14.3333H29.1512ZM29.1512 16.0833H21.7323C18.7585 16.0833 17.25 17.229 17.25 19.4912V36.6692C17.25 36.7788 17.313 36.8383 17.3655 36.8687C17.418 36.9013 17.5008 36.9247 17.5965 36.871L25.0422 32.6943C25.3082 32.5462 25.6337 32.545 25.9008 32.6955L33.2823 36.8652C33.3792 36.9212 33.462 36.8955 33.5145 36.864C33.567 36.8325 33.6288 36.773 33.6288 36.6633L33.6284 19.5717C33.6196 18.5676 33.4253 16.0833 29.1512 16.0833ZM29.6631 22.1833C30.1461 22.1833 30.5381 22.5753 30.5381 23.0583C30.5381 23.5413 30.1461 23.9333 29.6631 23.9333H21.1254C20.6424 23.9333 20.2504 23.5413 20.2504 23.0583C20.2504 22.5753 20.6424 22.1833 21.1254 22.1833H29.6631Z" fill="#5E5E5E"/>
</svg>
