<svg width="28" height="28" viewBox="0 0 28 28" fill="none" xmlns="http://www.w3.org/2000/svg">
<path d="M3.50033 22.1668V6.6501C3.50025 6.41061 3.57388 6.17691 3.71122 5.98071C3.84856 5.78452 4.04295 5.63534 4.26799 5.55344L15.5508 1.45143C15.639 1.41936 15.7335 1.40901 15.8265 1.42126C15.9195 1.43351 16.0082 1.468 16.085 1.52181C16.1618 1.57562 16.2245 1.64716 16.2678 1.73036C16.3111 1.81356 16.3337 1.90598 16.3337 1.99977V7.77827L23.7023 10.2341C23.9347 10.3115 24.1369 10.4601 24.2801 10.6588C24.4233 10.8575 24.5004 11.0963 24.5003 11.3413V22.1668H26.8337V24.5001H1.16699V22.1668H3.50033ZM5.83366 22.1668H14.0003V4.4976L5.83366 7.46793V22.1668ZM22.167 22.1668V12.1824L16.3337 10.2376V22.1668H22.167Z" fill="#55C1EF"/>
</svg>
