<svg width="30" height="30" viewBox="0 0 30 30" fill="none" xmlns="http://www.w3.org/2000/svg">
<path d="M13.4392 25.0168C13.6878 25.0168 13.9263 25.1155 14.1021 25.2913C14.2779 25.4672 14.3767 25.7056 14.3767 25.9543C14.3767 26.2029 14.2779 26.4414 14.1021 26.6172C13.9263 26.793 13.6878 26.8918 13.4392 26.8918C13.1905 26.8918 12.9521 26.793 12.7762 26.6172C12.6004 26.4414 12.5017 26.2029 12.5017 25.9543C12.5017 25.7056 12.6004 25.4672 12.7762 25.2913C12.9521 25.1155 13.1905 25.0168 13.4392 25.0168ZM19.0642 25.0168C19.3128 25.0168 19.5513 25.1155 19.7271 25.2913C19.9029 25.4672 20.0017 25.7056 20.0017 25.9543C20.0017 26.2029 19.9029 26.4414 19.7271 26.6172C19.5513 26.793 19.3128 26.8918 19.0642 26.8918C18.8155 26.8918 18.5771 26.793 18.4012 26.6172C18.2254 26.4414 18.1267 26.2029 18.1267 25.9543C18.1267 25.7056 18.2254 25.4672 18.4012 25.2913C18.5771 25.1155 18.8155 25.0168 19.0642 25.0168ZM10.6267 23.7668C10.8753 23.7668 11.1138 23.8655 11.2896 24.0413C11.4654 24.2172 11.5642 24.4556 11.5642 24.7043C11.5642 24.9529 11.4654 25.1914 11.2896 25.3672C11.1138 25.543 10.8753 25.6418 10.6267 25.6418C10.378 25.6418 10.1396 25.543 9.96374 25.3672C9.78793 25.1914 9.68915 24.9529 9.68915 24.7043C9.68915 24.4556 9.78793 24.2172 9.96374 24.0413C10.1396 23.8655 10.378 23.7668 10.6267 23.7668ZM16.2517 23.7668C16.5003 23.7668 16.7388 23.8655 16.9146 24.0413C17.0904 24.2172 17.1892 24.4556 17.1892 24.7043C17.1892 24.9529 17.0904 25.1914 16.9146 25.3672C16.7388 25.543 16.5003 25.6418 16.2517 25.6418C16.003 25.6418 15.7646 25.543 15.5887 25.3672C15.4129 25.1914 15.3142 24.9529 15.3142 24.7043C15.3142 24.4556 15.4129 24.2172 15.5887 24.0413C15.7646 23.8655 16.003 23.7668 16.2517 23.7668ZM21.8767 23.7668C22.1253 23.7668 22.3638 23.8655 22.5396 24.0413C22.7154 24.2172 22.8142 24.4556 22.8142 24.7043C22.8142 24.9529 22.7154 25.1914 22.5396 25.3672C22.3638 25.543 22.1253 25.6418 21.8767 25.6418C21.628 25.6418 21.3896 25.543 21.2137 25.3672C21.0379 25.1914 20.9392 24.9529 20.9392 24.7043C20.9392 24.4556 21.0379 24.2172 21.2137 24.0413C21.3896 23.8655 21.628 23.7668 21.8767 23.7668ZM16.2498 7.50613C20.2104 7.50613 22.4573 10.1274 22.7842 13.2936H22.8842C25.4329 13.2936 27.4992 15.3543 27.4992 17.8968C27.4992 20.4393 25.4329 22.4999 22.8842 22.4999H9.6154C7.06665 22.4999 5.00041 20.4393 5.00041 17.8968C5.00041 15.3543 7.06665 13.2936 9.6154 13.2936H9.7154C10.0442 10.1068 12.2892 7.50613 16.2498 7.50613ZM16.2498 9.06551C13.5867 9.06551 11.2654 11.2205 11.2654 14.1968C11.2654 14.6686 10.8554 15.0386 10.3854 15.0386H9.4979C7.87665 15.0386 6.56228 16.3599 6.56228 17.9893C6.56228 19.6193 7.87665 20.9405 9.4979 20.9405H23.0017C24.6229 20.9405 25.9373 19.6193 25.9373 17.9893C25.9373 16.3599 24.6229 15.0393 23.0017 15.0393H22.1142C21.6442 15.0393 21.2342 14.6686 21.2342 14.1968C21.2342 11.1824 18.9129 9.06551 16.2498 9.06551ZM5.44353 12.6893C5.51702 12.8671 5.52197 13.0658 5.45744 13.247C5.39291 13.4283 5.26347 13.5792 5.09415 13.6705L5.02228 13.7049L3.57791 14.3061C3.39409 14.3809 3.18864 14.3825 3.00365 14.3107C2.81865 14.2389 2.66811 14.0991 2.58287 13.9199C2.49762 13.7407 2.48413 13.5357 2.54514 13.3469C2.60615 13.1581 2.73705 12.9997 2.91103 12.9043L2.98291 12.8699L4.42791 12.2686C4.6183 12.19 4.83212 12.1901 5.02242 12.269C5.21273 12.3478 5.36396 12.499 5.4429 12.6893H5.44353ZM13.5685 6.66426L13.5298 6.67613C12.9523 6.86488 12.4148 7.11488 11.9235 7.41988C11.2523 7.13586 10.5082 7.07254 9.79859 7.23907C9.08902 7.4056 8.45074 7.79335 7.97595 8.34633C7.50115 8.89931 7.2144 9.5889 7.15712 10.3155C7.09984 11.0421 7.27499 11.7681 7.65728 12.3886C7.18698 12.5567 6.74036 12.7848 6.32853 13.0674C5.75348 12.0826 5.53789 10.9287 5.71852 9.80271C5.89915 8.67668 6.46481 7.64818 7.31903 6.89263C8.17325 6.13707 9.26313 5.70125 10.4028 5.65949C11.5424 5.61773 12.6613 5.97262 13.5685 6.66363V6.66426ZM3.48791 6.77613L3.56728 6.80488L5.01665 7.42301C5.4104 7.58926 5.59915 8.04488 5.43853 8.44051C5.28853 8.8105 4.88666 8.99675 4.51353 8.88488L4.43478 8.85675L2.98478 8.238C2.79552 8.1571 2.64546 8.00531 2.56673 7.81513C2.48799 7.62496 2.48685 7.41152 2.56353 7.22051C2.71353 6.85113 3.11541 6.66426 3.48853 6.77613H3.48791ZM8.0929 2.91738L8.12728 2.98988L8.72728 4.43113C8.80256 4.61588 8.8043 4.82242 8.73217 5.00841C8.66004 5.19441 8.51948 5.34576 8.33933 5.43144C8.15917 5.51713 7.95306 5.53064 7.76326 5.46923C7.57346 5.40781 7.41434 5.27611 7.31853 5.10113L7.28415 5.02926L6.68415 3.58801C6.60808 3.40313 6.60577 3.19613 6.6777 3.00961C6.74963 2.82309 6.89033 2.67124 7.07083 2.58531C7.25133 2.49938 7.4579 2.48592 7.64803 2.54769C7.83816 2.60947 7.99737 2.74177 8.0929 2.91738ZM13.7485 2.56738C14.1248 2.72363 14.316 3.13613 14.2048 3.51801L14.176 3.59926L13.556 5.02176C13.4794 5.20929 13.3337 5.36019 13.1489 5.44324C12.9641 5.52629 12.7545 5.53512 12.5634 5.46791C12.3723 5.40071 12.2143 5.2626 12.1222 5.08218C12.0301 4.90176 12.0109 4.69283 12.0685 4.49863L12.0973 4.41738L12.7167 2.99488C12.7969 2.80155 12.9505 2.64794 13.1438 2.56779C13.3372 2.48764 13.5544 2.48749 13.7479 2.56738H13.7485Z" fill="#55C1EF"/>
</svg>
