<svg width="130" height="31" viewBox="0 0 130 31" fill="none" xmlns="http://www.w3.org/2000/svg">
<path d="M10.7223 12.9839H13.5737V30.0598H12.3528C12.1473 30.0606 11.9436 30.0198 11.7535 29.9397C11.5635 29.8596 11.3908 29.7418 11.2453 29.5931C11.0999 29.4444 10.9846 29.2677 10.9062 29.0732C10.8277 28.8787 10.7876 28.6702 10.7881 28.4597C10.3456 29.0564 9.77203 29.5379 9.1139 29.8654C8.45576 30.1928 7.73157 30.3569 6.99997 30.3444C6.20896 30.3644 5.42277 30.2127 4.69318 29.8991C3.96359 29.5855 3.30716 29.1172 2.7671 28.5251C1.64918 27.2897 1.0789 25.7634 1.0789 23.9441C1.04016 22.2639 1.64626 20.6352 2.7671 19.4074C3.30108 18.8115 3.95296 18.3389 4.67929 18.0212C5.40562 17.7035 6.18973 17.548 6.97938 17.5649C7.70134 17.5513 8.4164 17.7108 9.06738 18.0307C9.71836 18.3506 10.2872 18.8221 10.7284 19.4074L10.7223 12.9839ZM9.91109 26.594C10.5544 25.8711 10.9003 24.9218 10.8767 23.9441C10.8961 22.9679 10.5388 22.0233 9.88227 21.3153C9.56784 20.9613 9.18199 20.6816 8.75147 20.4956C8.32096 20.3096 7.85608 20.2217 7.38908 20.238C6.92101 20.2205 6.45486 20.3078 6.02316 20.4939C5.59147 20.68 5.20465 20.9603 4.88971 21.3153C4.26951 22.0463 3.92798 22.9821 3.92798 23.9504C3.92798 24.9188 4.26951 25.8546 4.88971 26.5856C5.20438 26.9409 5.59116 27.2215 6.02292 27.4076C6.45467 27.5937 6.92096 27.6808 7.38908 27.6628C7.85992 27.682 8.32922 27.5963 8.76462 27.4118C9.20002 27.2273 9.59117 26.9483 9.91109 26.594Z" fill="#55C1EF"/>
<path d="M15.3298 24.7662V17.8579H18.2121V24.9539C18.2121 26.594 19.1571 27.6712 20.7136 27.6712C22.27 27.6712 23.2356 26.594 23.2356 24.9539V17.8579H26.1179V24.9539C26.1179 28.388 24.0262 30.3949 20.5921 30.3443C17.6439 30.3001 15.3298 27.7682 15.3298 24.7662Z" fill="#55C1EF"/>
<path d="M39.1932 25.0002H30.1118C30.4845 26.6867 31.7136 27.8062 33.7538 27.8062C34.4553 27.8084 35.1531 27.7011 35.8229 27.4878C36.3749 27.2954 36.9749 27.305 37.5208 27.5149C38.0666 27.7248 38.5245 28.122 38.8164 28.6389C37.3197 29.7696 35.5002 30.3625 33.6406 30.3254C29.1648 30.3254 27.1904 27.1821 27.1904 23.9483C27.1904 22.1058 27.7607 20.5753 28.9013 19.3884C30.0418 18.2015 31.5551 17.5691 33.3771 17.5691C35.1085 17.5691 36.5126 18.1299 37.6099 19.2324C38.7073 20.335 39.2776 21.8149 39.2776 23.7016C39.2755 24.1359 39.2473 24.5696 39.1932 25.0002ZM30.1118 22.7677H36.4735C36.2326 21.0602 35.0323 20.004 33.3853 20.004C31.7383 20.004 30.4845 21.0686 30.1118 22.7677Z" fill="#55C1EF"/>
<path d="M58.2102 18.912C59.1099 19.8333 59.569 21.0918 59.569 22.7067V28.3986C59.569 28.836 59.3994 29.2555 59.0976 29.565C58.7957 29.8745 58.3862 30.0487 57.959 30.0493H56.697V23.2484C56.697 21.271 55.7088 20.2148 54.2264 20.2148C52.6247 20.2148 51.4841 21.4502 51.4841 23.337V28.3965C51.4841 28.8343 51.3143 29.2541 51.012 29.5637C50.7097 29.8732 50.2997 30.0472 49.8721 30.0472H48.6368V23.2695C48.6368 21.3722 47.628 20.2148 46.1148 20.2148C44.5131 20.2148 43.3519 21.4502 43.3519 23.3602V28.4028C43.3514 28.8404 43.1814 29.26 42.8792 29.5694C42.577 29.8788 42.1673 30.0529 41.7399 30.0535H40.5046V17.858H43.3108V19.6056C43.675 18.9565 44.2034 18.4199 44.8403 18.0522C45.4773 17.6846 46.1992 17.4995 46.9301 17.5164C48.4866 17.5396 49.8474 18.2796 50.4836 19.6941C51.34 18.3239 52.9397 17.5164 54.7597 17.5164C56.1699 17.5207 57.3105 17.9929 58.2102 18.912Z" fill="#55C1EF"/>
<path d="M62.4429 19.4074C63.6494 18.172 65.1626 17.5438 67.0279 17.5438C68.8931 17.5438 70.4043 18.1763 71.5901 19.4074C72.1773 19.9971 72.6399 20.7041 72.9491 21.4846C73.2582 22.265 73.4075 23.1021 73.3875 23.9441C73.3875 25.7634 72.7966 27.2897 71.5901 28.525C70.3837 29.7604 68.8911 30.3676 67.0279 30.3676C65.1647 30.3676 63.6494 29.7604 62.4429 28.525C61.8606 27.9235 61.403 27.2076 61.0977 26.4204C60.7923 25.6332 60.6456 24.7909 60.6662 23.9441C60.6477 23.1042 60.7955 22.2692 61.1009 21.4894C61.4063 20.7097 61.8628 20.0014 62.4429 19.4074ZM69.5046 21.3384C69.1833 20.9978 68.7984 20.7269 68.3727 20.5418C67.947 20.3568 67.4893 20.2614 67.0268 20.2614C66.5644 20.2614 66.1067 20.3568 65.681 20.5418C65.2553 20.7269 64.8703 20.9978 64.5491 21.3384C63.9007 22.0478 63.5399 22.983 63.5399 23.9546C63.5399 24.9262 63.9007 25.8615 64.5491 26.5708C64.8699 26.9123 65.2547 27.1839 65.6804 27.3694C66.1062 27.555 66.5641 27.6506 67.0268 27.6506C67.4895 27.6506 67.9475 27.555 68.3732 27.3694C68.799 27.1839 69.1838 26.9123 69.5046 26.5708C70.1539 25.862 70.5153 24.9265 70.5153 23.9546C70.5153 22.9827 70.1539 22.0473 69.5046 21.3384Z" fill="#55C1EF"/>
<path d="M83.3026 17.8579H85.3202L80.1218 30.0302H77.9724L72.7966 17.8579H74.841C75.1683 17.8572 75.4883 17.9573 75.7593 18.1453C76.0303 18.3333 76.2397 18.6004 76.3604 18.912L79.0903 26.0269L81.7791 18.9183C81.8993 18.6051 82.109 18.3363 82.3809 18.1471C82.6527 17.9579 82.9739 17.8571 83.3026 17.8579Z" fill="#55C1EF"/>
<path d="M96.7259 25.0002H87.6446C88.0193 26.6867 89.2463 27.8062 91.2866 27.8062C91.9895 27.809 92.6886 27.7017 93.3598 27.4878C93.9115 27.296 94.511 27.3059 95.0565 27.5157C95.6019 27.7256 96.0594 28.1225 96.3512 28.6389C94.8545 29.7696 93.035 30.3625 91.1754 30.3254C86.6996 30.3254 84.7273 27.1821 84.7273 23.9483C84.7273 22.1058 85.2955 20.5753 86.4361 19.3884C87.5766 18.2015 89.0919 17.5691 90.9119 17.5691C92.6433 17.5691 94.0474 18.1299 95.1447 19.2324C96.2421 20.335 96.8124 21.8149 96.8124 23.7016C96.8096 24.1359 96.7808 24.5696 96.7259 25.0002ZM87.6446 22.7677H94.0062C93.7654 21.0602 92.5651 20.004 90.9181 20.004C89.271 20.004 88.0193 21.0686 87.6446 22.7677Z" fill="#55C1EF"/>
<path d="M101.939 13.2412L111.677 18.9858V30.3676H118.45V14.9762L108.607 9.23151L101.939 13.2412Z" fill="#55C1EF"/>
<path d="M121.52 30.3676H129.036V8.79723L115.488 0.885437L107.971 5.11223L121.52 13.2412V30.3676Z" fill="#55C1EF"/>
<path d="M101.922 16.8271L108.72 20.978V30.3676H101.922V16.8271Z" fill="#55C1EF"/>
</svg>
