<svg width="28" height="28" viewBox="0 0 28 28" fill="none" xmlns="http://www.w3.org/2000/svg">
<path d="M27.2016 13.3766C27.1036 13.1986 26.9692 13.0432 26.8071 12.9207C26.645 12.7982 26.4589 12.7113 26.2609 12.6657C25.1918 12.3992 24.081 12.3435 22.9906 12.5016C23.4062 10.4344 23.0891 8.81565 22.7719 7.85315C22.6578 7.49178 22.4129 7.18604 22.0851 6.99585C21.7573 6.80567 21.3703 6.74474 21 6.82503C19.9303 7.06189 18.914 7.49585 18.0031 8.10471C17.3153 6.56716 16.2553 5.22518 14.9187 4.20003C14.653 4.00291 14.3309 3.89648 14 3.89648C13.6691 3.89648 13.347 4.00291 13.0812 4.20003C11.7447 5.22518 10.6847 6.56716 9.99687 8.10471C9.086 7.49585 8.06972 7.06189 7 6.82503C6.62965 6.74474 6.24267 6.80567 5.9149 6.99585C5.58713 7.18604 5.3422 7.49178 5.22812 7.85315C4.91094 8.81565 4.59375 10.4344 5.00937 12.5016C3.91895 12.3435 2.80818 12.3992 1.73906 12.6657C1.54108 12.7113 1.35496 12.7982 1.19287 12.9207C1.03078 13.0432 0.896372 13.1986 0.798437 13.3766C0.696187 13.5516 0.629966 13.7453 0.603669 13.9463C0.577372 14.1473 0.591531 14.3515 0.645312 14.5469C1.02812 15.9032 2.1875 18.4735 5.69844 20.4969C9.20937 22.5203 12.3266 22.5313 14 22.5313C15.6734 22.5313 18.7906 22.5313 22.3016 20.4969C25.8125 18.4625 26.9719 15.9032 27.3547 14.5469C27.4085 14.3515 27.4226 14.1473 27.3963 13.9463C27.37 13.7453 27.3038 13.5516 27.2016 13.3766ZM21.2734 8.10471C21.3269 8.09434 21.3823 8.10428 21.4288 8.1326C21.4754 8.16092 21.5097 8.20558 21.525 8.25784C21.8422 9.2094 22.1375 10.9047 21.4922 13.0922C21.4797 13.1236 21.4723 13.1569 21.4703 13.1907C21.201 14.0291 20.8416 14.8359 20.3984 15.5969C19.6508 16.8811 18.6975 18.0339 17.5766 19.0094C18.3859 17.5766 19.0312 15.6407 19.0312 13.125C19.0378 11.8506 18.8535 10.5824 18.4844 9.36253C19.3212 8.76194 20.2694 8.33432 21.2734 8.10471ZM13.8687 5.25003C13.9066 5.22163 13.9527 5.20628 14 5.20628C14.0473 5.20628 14.0934 5.22163 14.1312 5.25003C15.2141 6.0594 17.7188 8.43284 17.7188 13.125C17.7188 18.0797 14.9625 20.4313 14 21.0985C13.0594 20.4313 10.2812 18.0469 10.2812 13.125C10.2812 8.43284 12.7859 6.0594 13.8687 5.25003ZM6.475 8.25784C6.49034 8.20558 6.52463 8.16092 6.57115 8.1326C6.61768 8.10428 6.67309 8.09434 6.72656 8.10471C7.73065 8.33432 8.67884 8.76194 9.51562 9.36253C9.14652 10.5824 8.96218 11.8506 8.96875 13.125C8.96875 15.6407 9.61406 17.5766 10.4234 19.0094C9.3025 18.0339 8.34921 16.8811 7.60156 15.5969C7.15592 14.8372 6.79641 14.0301 6.52969 13.1907C6.52769 13.1569 6.52031 13.1236 6.50781 13.0922C5.8625 10.9047 6.15781 9.2094 6.475 8.25784ZM1.91406 14.1969C1.89923 14.1425 1.90308 14.0848 1.925 14.0328C1.93905 14.0084 1.95793 13.987 1.9805 13.9701C2.00306 13.9532 2.02884 13.941 2.05625 13.9344C2.77812 13.7485 3.91562 13.6063 5.38125 13.8907C5.66066 14.713 6.02348 15.5046 6.46406 16.2532C7.55331 18.1361 9.04315 19.7567 10.8281 21C9.25183 20.7275 7.73689 20.1756 6.35469 19.3703C3.2375 17.5657 2.23125 15.3563 1.91406 14.1969ZM26.0859 14.1969C25.7687 15.3563 24.7625 17.5657 21.6453 19.3703C20.2631 20.1756 18.7482 20.7275 17.1719 21C18.9568 19.7567 20.4467 18.1361 21.5359 16.2532C21.9765 15.5046 22.3393 14.713 22.6187 13.8907C24.0844 13.6063 25.2219 13.7485 25.9437 13.9344C25.9712 13.941 25.9969 13.9532 26.0195 13.9701C26.0421 13.987 26.0609 14.0084 26.075 14.0328C26.0969 14.0848 26.1008 14.1425 26.0859 14.1969Z" fill="#55C1EF"/>
</svg>
