<svg width="45" height="45" viewBox="0 0 45 45" fill="none" xmlns="http://www.w3.org/2000/svg">
<path d="M35.625 41.25H9.375C8.87772 41.25 8.40081 41.0524 8.04918 40.7008C7.69754 40.3492 7.5 39.8723 7.5 39.375V21.2944C7.52888 20.8348 7.72418 20.4016 8.04938 20.0756L21.1744 6.95061C21.3485 6.77628 21.5553 6.63798 21.7829 6.54362C22.0105 6.44926 22.2545 6.4007 22.5009 6.4007C22.7473 6.4007 22.9913 6.44926 23.219 6.54362C23.4466 6.63798 23.6534 6.77628 23.8275 6.95061L36.9525 20.0756C37.1268 20.2495 37.2649 20.4561 37.3589 20.6836C37.4528 20.9112 37.5008 21.1551 37.5 21.4012V39.375C37.5 39.8723 37.3025 40.3492 36.9508 40.7008C36.5992 41.0524 36.1223 41.25 35.625 41.25ZM22.5 10.9275L11.25 22.1775V37.5H33.75V22.1775L22.5 10.9275ZM18.5213 33.8831L15.8719 31.2319L19.8488 27.255L15.8719 23.2762L18.5231 20.625L22.5 24.6019L26.4769 20.625L29.1281 23.2762L25.1512 27.2531L29.1281 31.23L26.4788 33.8794L22.5 29.9044L18.5231 33.8831H18.5213Z" fill="#55C1EF"/>
</svg>
