<svg width="45" height="45" viewBox="0 0 45 45" fill="none" xmlns="http://www.w3.org/2000/svg">
<path d="M15.75 24.75C16.3467 24.75 16.919 24.5129 17.341 24.091C17.7629 23.669 18 23.0967 18 22.5C18 21.9033 17.7629 21.331 17.341 20.909C16.919 20.4871 16.3467 20.25 15.75 20.25C15.1533 20.25 14.581 20.4871 14.159 20.909C13.7371 21.331 13.5 21.9033 13.5 22.5C13.5 23.0967 13.7371 23.669 14.159 24.091C14.581 24.5129 15.1533 24.75 15.75 24.75ZM22.5 24.75C23.0967 24.75 23.669 24.5129 24.091 24.091C24.5129 23.669 24.75 23.0967 24.75 22.5C24.75 21.9033 24.5129 21.331 24.091 20.909C23.669 20.4871 23.0967 20.25 22.5 20.25C21.9033 20.25 21.331 20.4871 20.909 20.909C20.4871 21.331 20.25 21.9033 20.25 22.5C20.25 23.0967 20.4871 23.669 20.909 24.091C21.331 24.5129 21.9033 24.75 22.5 24.75ZM31.5 22.5C31.5 23.0967 31.2629 23.669 30.841 24.091C30.419 24.5129 29.8467 24.75 29.25 24.75C28.6533 24.75 28.081 24.5129 27.659 24.091C27.2371 23.669 27 23.0967 27 22.5C27 21.9033 27.2371 21.331 27.659 20.909C28.081 20.4871 28.6533 20.25 29.25 20.25C29.8467 20.25 30.419 20.4871 30.841 20.909C31.2629 21.331 31.5 21.9033 31.5 22.5ZM15.75 31.5C16.3467 31.5 16.919 31.2629 17.341 30.841C17.7629 30.419 18 29.8467 18 29.25C18 28.6533 17.7629 28.081 17.341 27.659C16.919 27.2371 16.3467 27 15.75 27C15.1533 27 14.581 27.2371 14.159 27.659C13.7371 28.081 13.5 28.6533 13.5 29.25C13.5 29.8467 13.7371 30.419 14.159 30.841C14.581 31.2629 15.1533 31.5 15.75 31.5ZM24.75 29.25C24.75 29.8467 24.5129 30.419 24.091 30.841C23.669 31.2629 23.0967 31.5 22.5 31.5C21.9033 31.5 21.331 31.2629 20.909 30.841C20.4871 30.419 20.25 29.8467 20.25 29.25C20.25 28.6533 20.4871 28.081 20.909 27.659C21.331 27.2371 21.9033 27 22.5 27C23.0967 27 23.669 27.2371 24.091 27.659C24.5129 28.081 24.75 28.6533 24.75 29.25ZM29.25 31.5C29.8467 31.5 30.419 31.2629 30.841 30.841C31.2629 30.419 31.5 29.8467 31.5 29.25C31.5 28.6533 31.2629 28.081 30.841 27.659C30.419 27.2371 29.8467 27 29.25 27C28.6533 27 28.081 27.2371 27.659 27.659C27.2371 28.081 27 28.6533 27 29.25C27 29.8467 27.2371 30.419 27.659 30.841C28.081 31.2629 28.6533 31.5 29.25 31.5Z" fill="#55C1EF"/>
<path d="M20.2455 5.36398C20.865 4.8074 21.6683 4.49951 22.5011 4.49951C23.3339 4.49951 24.1373 4.8074 24.7568 5.36398L37.1318 16.4857C37.4839 16.8024 37.7654 17.1896 37.9581 17.6222C38.1507 18.0548 38.2502 18.5232 38.25 18.9967V34.875C38.25 35.7701 37.8944 36.6285 37.2615 37.2615C36.6285 37.8944 35.7701 38.25 34.875 38.25H10.125C9.22989 38.25 8.37145 37.8944 7.73851 37.2615C7.10558 36.6285 6.75 35.7701 6.75 34.875V18.9967C6.75 18.0405 7.155 17.127 7.8705 16.4857L20.2455 5.36398ZM23.2515 7.03798C23.0451 6.85266 22.7774 6.75016 22.5 6.75016C22.2226 6.75016 21.9549 6.85266 21.7485 7.03798L9.3735 18.1597C9.25599 18.2652 9.162 18.3943 9.09765 18.5385C9.0333 18.6827 9.00003 18.8388 9 18.9967V34.875C9 35.1733 9.11853 35.4595 9.3295 35.6705C9.54048 35.8815 9.82663 36 10.125 36H34.875C35.1734 36 35.4595 35.8815 35.6705 35.6705C35.8815 35.4595 36 35.1733 36 34.875V18.9967C36 18.8388 35.9667 18.6827 35.9024 18.5385C35.838 18.3943 35.744 18.2652 35.6265 18.1597L23.2515 7.03798Z" fill="#55C1EF"/>
</svg>
