<svg width="45" height="45" viewBox="0 0 45 45" fill="none" xmlns="http://www.w3.org/2000/svg">
<path d="M20.2455 5.37301C20.865 4.81644 21.6683 4.50854 22.5011 4.50854C23.3339 4.50854 24.1373 4.81644 24.7568 5.37301L37.1318 16.4925C37.4836 16.8089 37.765 17.1958 37.9576 17.628C38.1503 18.0602 38.2499 18.5281 38.25 19.0013V21.6C37.5309 21.2321 36.7772 20.9359 36 20.7158V19.0013C35.9997 18.8437 35.9662 18.688 35.9019 18.5442C35.8376 18.4004 35.7437 18.2717 35.6265 18.1665L23.2515 7.04701C23.0451 6.8617 22.7774 6.75919 22.5 6.75919C22.2226 6.75919 21.9549 6.8617 21.7485 7.04701L9.3735 18.1665C9.25627 18.2717 9.16244 18.4004 9.0981 18.5442C9.03376 18.688 9.00034 18.8437 9 19.0013V34.875C9 35.1734 9.11853 35.4595 9.3295 35.6705C9.54048 35.8815 9.82663 36 10.125 36H20.7157C20.9362 36.783 21.2332 37.5368 21.5977 38.25H10.125C9.22989 38.25 8.37145 37.8944 7.73851 37.2615C7.10558 36.6286 6.75 35.7701 6.75 34.875V19.0013C6.75 18.045 7.155 17.1338 7.8705 16.4925L20.2455 5.37301Z" fill="#55C1EF"/>
<path d="M42.75 32.625C42.75 35.3103 41.6833 37.8856 39.7845 39.7845C37.8856 41.6833 35.3103 42.75 32.625 42.75C29.9397 42.75 27.3644 41.6833 25.4655 39.7845C23.5667 37.8856 22.5 35.3103 22.5 32.625C22.5 29.9397 23.5667 27.3644 25.4655 25.4655C27.3644 23.5667 29.9397 22.5 32.625 22.5C35.3103 22.5 37.8856 23.5667 39.7845 25.4655C41.6833 27.3644 42.75 29.9397 42.75 32.625ZM33.75 28.125C33.75 27.8266 33.6315 27.5405 33.4205 27.3295C33.2095 27.1185 32.9234 27 32.625 27C32.3266 27 32.0405 27.1185 31.8295 27.3295C31.6185 27.5405 31.5 27.8266 31.5 28.125V31.5H28.125C27.8266 31.5 27.5405 31.6185 27.3295 31.8295C27.1185 32.0405 27 32.3266 27 32.625C27 32.9234 27.1185 33.2095 27.3295 33.4205C27.5405 33.6315 27.8266 33.75 28.125 33.75H31.5V37.125C31.5 37.4234 31.6185 37.7095 31.8295 37.9205C32.0405 38.1315 32.3266 38.25 32.625 38.25C32.9234 38.25 33.2095 38.1315 33.4205 37.9205C33.6315 37.7095 33.75 37.4234 33.75 37.125V33.75H37.125C37.4234 33.75 37.7095 33.6315 37.9205 33.4205C38.1315 33.2095 38.25 32.9234 38.25 32.625C38.25 32.3266 38.1315 32.0405 37.9205 31.8295C37.7095 31.6185 37.4234 31.5 37.125 31.5H33.75V28.125Z" fill="#55C1EF"/>
</svg>
