<svg width="45" height="45" viewBox="0 0 45 45" fill="none" xmlns="http://www.w3.org/2000/svg">
<path d="M19.7569 4.75128C20.5176 4.10806 21.4815 3.75484 22.4778 3.75415C23.474 3.75347 24.4383 4.10536 25.2 4.74753L37.875 15.4313C38.8256 16.2319 39.375 17.4132 39.375 18.6563V37.0294C39.375 37.8996 39.0293 38.7342 38.4139 39.3496C37.7986 39.965 36.964 40.3107 36.0938 40.3107H8.90625C8.03633 40.3107 7.20202 39.9652 6.58672 39.3503C5.97142 38.7353 5.6255 37.9012 5.625 37.0313V18.6563C5.625 17.415 6.1725 16.2375 7.11937 15.435L19.7569 4.75128ZM23.3869 6.89815C23.1331 6.68376 22.8116 6.56614 22.4794 6.56614C22.1472 6.56614 21.8257 6.68376 21.5719 6.89815L8.93437 17.5819C8.77844 17.7141 8.6532 17.8787 8.56739 18.0643C8.48157 18.2498 8.43725 18.4518 8.4375 18.6563V37.0313C8.4375 37.29 8.6475 37.5 8.90625 37.5H36.0938C36.2181 37.5 36.3373 37.4506 36.4252 37.3627C36.5131 37.2748 36.5625 37.1556 36.5625 37.0313V18.6563C36.5623 18.4515 36.5174 18.2493 36.4309 18.0638C36.3444 17.8782 36.2185 17.7137 36.0619 17.5819L23.3869 6.8944V6.89815ZM29.5931 20.0925C29.8565 20.3562 30.0044 20.7136 30.0044 21.0863C30.0044 21.4589 29.8565 21.8164 29.5931 22.08L21.15 30.525C20.8863 30.7884 20.5289 30.9363 20.1562 30.9363C19.7836 30.9363 19.4262 30.7884 19.1625 30.525L15.4125 26.775C15.1641 26.5084 15.0289 26.1559 15.0353 25.7915C15.0417 25.4272 15.1893 25.0796 15.447 24.822C15.7046 24.5643 16.0522 24.4168 16.4165 24.4103C16.7808 24.4039 17.1334 24.5391 17.4 24.7875L20.1562 27.5438L27.6056 20.0925C27.8693 19.8292 28.2267 19.6813 28.5994 19.6813C28.972 19.6813 29.3295 19.8292 29.5931 20.0925Z" fill="#55C1EF"/>
</svg>
