<svg width="20" height="20" viewBox="0 0 20 20" fill="none" xmlns="http://www.w3.org/2000/svg">
<path d="M9.386 0.210023C9.56154 0.073468 9.7776 -0.000671387 10 -0.000671387C10.2224 -0.000671387 10.4385 0.073468 10.614 0.210023L18.842 6.61002C19.2028 6.89072 19.4948 7.25017 19.6955 7.66092C19.8962 8.07167 20.0003 8.52286 20 8.98002V18C20 18.5305 19.7893 19.0392 19.4142 19.4142C19.0391 19.7893 18.5304 20 18 20H14C13.4696 20 12.9609 19.7893 12.5858 19.4142C12.2107 19.0392 12 18.5305 12 18V12H8V18C8 18.5305 7.78929 19.0392 7.41421 19.4142C7.03914 19.7893 6.53043 20 6 20H2C1.46957 20 0.960859 19.7893 0.585786 19.4142C0.210714 19.0392 0 18.5305 0 18V8.98002C0 8.05202 0.428 7.18002 1.16 6.61002L9.386 0.210023ZM10 2.26602L2.386 8.18802C2.26545 8.2818 2.16799 8.40193 2.10108 8.53922C2.03416 8.67651 1.99959 8.8273 2 8.98002V18H6V12C6 11.4696 6.21071 10.9609 6.58579 10.5858C6.96086 10.2107 7.46957 10 8 10H12C12.5304 10 13.0391 10.2107 13.4142 10.5858C13.7893 10.9609 14 11.4696 14 12V18H18V8.98002C18.0004 8.8273 17.9658 8.67651 17.8989 8.53922C17.832 8.40193 17.7345 8.2818 17.614 8.18802L10 2.26802V2.26602Z" fill="#9D9B9B"/>
</svg>
