<svg width="24" height="24" viewBox="0 0 24 24" fill="none" xmlns="http://www.w3.org/2000/svg">
<path d="M12.614 2.21002C12.4385 2.07347 12.2224 1.99933 12 1.99933C11.7776 1.99933 11.5615 2.07347 11.386 2.21002L3.158 8.61002C2.79716 8.89072 2.50524 9.25017 2.30455 9.66092C2.10385 10.0717 1.99968 10.5229 2 10.98V20C2 20.5305 2.21071 21.0392 2.58579 21.4142C2.96086 21.7893 3.46957 22 4 22H8C8.53043 22 9.03914 21.7893 9.41421 21.4142C9.78929 21.0392 10 20.5305 10 20V14H14V20C14 20.5305 14.2107 21.0392 14.5858 21.4142C14.9609 21.7893 15.4696 22 16 22H20C20.5304 22 21.0391 21.7893 21.4142 21.4142C21.7893 21.0392 22 20.5305 22 20V10.98C22.0001 10.5227 21.8956 10.0714 21.6946 9.66064C21.4935 9.24988 21.2012 8.89052 20.84 8.61002L12.614 2.21002Z" fill="#55C1EF"/>
</svg>
