<svg width="30" height="30" viewBox="0 0 30 30" fill="none" xmlns="http://www.w3.org/2000/svg">
<path d="M27.9785 14.0953C27.8735 13.8713 27.7119 13.6787 27.5096 13.5363C27.3074 13.3939 27.0716 13.3068 26.8254 13.2834C25.5983 13.1581 24.4603 12.5854 23.6285 11.6746C22.9146 10.8722 22.4268 9.89444 22.2149 8.8415C22.0031 7.78855 22.0748 6.69822 22.4229 5.68213C22.5048 5.43684 22.522 5.17456 22.4729 4.92065C22.4238 4.66675 22.31 4.42981 22.1425 4.23276C21.9888 4.05115 21.7903 3.91293 21.5666 3.83185C21.3429 3.75076 21.1019 3.72964 20.8675 3.77057L20.8497 3.77338C19.2441 4.12611 17.8008 5.00126 16.7456 6.26185C15.6905 7.52244 15.0831 9.09731 15.0185 10.7399C14.262 10.4606 13.4624 10.3159 12.656 10.3124C11.163 10.3203 9.71074 10.8001 8.50682 11.6831C7.30291 12.5661 6.40899 13.8071 5.95286 15.2287C4.64916 15.6007 3.52393 16.4315 2.7847 17.568C2.04547 18.7044 1.74209 20.0699 1.93053 21.4124C2.11896 22.755 2.78649 23.9841 3.81002 24.8732C4.83354 25.7622 6.14401 26.2512 7.49973 26.2499H17.8122C18.7205 26.2535 19.6161 26.0361 20.4217 25.6167C21.2274 25.1972 21.919 24.5882 22.4369 23.8421C22.9549 23.096 23.2838 22.2351 23.3952 21.3337C23.5065 20.4322 23.3971 19.5172 23.0763 18.6674C24.0546 18.5112 24.9889 18.15 25.818 17.6077C26.6471 17.0653 27.3524 16.354 27.8875 15.5203C28.0252 15.3111 28.106 15.0697 28.1219 14.8198C28.1379 14.5699 28.0884 14.3202 27.9785 14.0953ZM17.8122 24.3749H7.49973C6.56064 24.3765 5.65526 24.025 4.96319 23.3903C4.27111 22.7555 3.8429 21.8838 3.76348 20.9481C3.68407 20.0123 3.95926 19.0809 4.53446 18.3386C5.10967 17.5963 5.94287 17.0973 6.8688 16.9406L7.49036 16.8356L7.6263 16.2206C7.88071 15.0763 8.51771 14.0529 9.43213 13.3195C10.3466 12.586 11.4838 12.1863 12.656 12.1863C13.8282 12.1863 14.9654 12.586 15.8798 13.3195C16.7943 14.0529 17.4313 15.0763 17.6857 16.2206L17.8216 16.8356L18.4432 16.9415C19.3679 17.0995 20.1996 17.5989 20.7737 18.3409C21.3477 19.0828 21.6223 20.0133 21.5429 20.9481C21.4636 21.8829 21.0362 22.7538 20.3453 23.3884C19.6544 24.023 18.7504 24.3751 17.8122 24.3749ZM21.9982 16.874H21.9785C21.2774 16.0898 20.3691 15.5195 19.3582 15.2287C18.9176 13.8573 18.0668 12.654 16.9207 11.7815C16.9113 11.6868 16.8869 11.5968 16.8822 11.5003C16.8005 10.3009 17.1001 9.10642 17.7383 8.08768C18.3765 7.06894 19.3205 6.27813 20.4354 5.82838C20.1413 7.07403 20.1531 8.37236 20.4698 9.61246C20.7865 10.8525 21.3987 11.9975 22.2541 12.9496C23.2275 14.0082 24.5058 14.7381 25.9122 15.0384C25.4345 15.6129 24.8362 16.0752 24.1598 16.3924C23.4833 16.7097 22.7453 16.8741 21.9982 16.874Z" fill="#55C1EF"/>
</svg>
