<svg width="28" height="28" viewBox="0 0 28 28" fill="none" xmlns="http://www.w3.org/2000/svg">
<path fill-rule="evenodd" clip-rule="evenodd" d="M21.8246 10.2624C21.8246 11.7276 22.2119 12.5913 23.0641 13.5865C23.71 14.3197 23.9163 15.2609 23.9163 16.282C23.9163 17.302 23.5812 18.2702 22.9099 19.0563C22.031 19.9986 20.7915 20.6002 19.5265 20.7048C17.6933 20.8611 15.8589 20.9927 14.0003 20.9927C12.1404 20.9927 10.3072 20.914 8.47405 20.7048C7.20787 20.6002 5.96836 19.9986 5.09062 19.0563C4.41926 18.2702 4.08301 17.302 4.08301 16.282C4.08301 15.2609 4.29056 14.3197 4.93524 13.5865C5.81415 12.5913 6.17591 11.7276 6.17591 10.2624V9.76536C6.17591 7.80307 6.66523 6.51995 7.67284 5.26385C9.17092 3.43199 11.5723 2.33334 13.9481 2.33334H14.0524C16.4793 2.33334 18.9583 3.48487 20.4309 5.39545C21.3863 6.6257 21.8246 7.85477 21.8246 9.76536V10.2624ZM10.5856 23.4043C10.5856 22.8168 11.1248 22.5477 11.6234 22.4326C12.2066 22.3092 15.7605 22.3092 16.3437 22.4326C16.8423 22.5477 17.3815 22.8168 17.3815 23.4043C17.3525 23.9636 17.0244 24.4595 16.571 24.7744C15.9831 25.2327 15.2932 25.5229 14.572 25.6275C14.1731 25.6792 13.7812 25.6803 13.3963 25.6275C12.6739 25.5229 11.984 25.2327 11.3973 24.7732C10.9428 24.4595 10.6146 23.9636 10.5856 23.4043Z" fill="#18191A"/>
<circle cx="20" cy="6" r="3.5" fill="#55C1EF" stroke="white"/>
</svg>
