<svg width="29" height="29" viewBox="0 0 29 29" fill="none" xmlns="http://www.w3.org/2000/svg">
<circle cx="14.5" cy="14.5" r="14.5" fill="#F0F0F0" fill-opacity="0.5"/>
<path d="M18.6588 17.9969L20.4897 19.8269C20.5751 19.9153 20.6223 20.0337 20.6213 20.1566C20.6202 20.2795 20.5709 20.3971 20.484 20.484C20.3971 20.5709 20.2795 20.6202 20.1566 20.6213C20.0337 20.6223 19.9153 20.5751 19.8269 20.4897L17.996 18.6588C16.7995 19.6839 15.2525 20.2057 13.6795 20.1148C12.1066 20.0239 10.63 19.3272 9.55962 18.1711C8.48924 17.015 7.90825 15.4892 7.93857 13.9139C7.96889 12.3386 8.60817 10.8363 9.72226 9.72226C10.8363 8.60817 12.3386 7.96889 13.9139 7.93857C15.4892 7.90825 17.015 8.48924 18.1711 9.55962C19.3272 10.63 20.0239 12.1066 20.1148 13.6795C20.2057 15.2525 19.6839 16.8004 18.6588 17.9969ZM14.0313 19.1875C15.3988 19.1875 16.7103 18.6443 17.6773 17.6773C18.6443 16.7103 19.1875 15.3988 19.1875 14.0313C19.1875 12.6637 18.6443 11.3522 17.6773 10.3852C16.7103 9.41826 15.3988 8.87501 14.0313 8.87501C12.6637 8.87501 11.3522 9.41826 10.3852 10.3852C9.41826 11.3522 8.87501 12.6637 8.87501 14.0313C8.87501 15.3988 9.41826 16.7103 10.3852 17.6773C11.3522 18.6443 12.6637 19.1875 14.0313 19.1875Z" fill="#5E5E5E"/>
</svg>
